<svg width="1200" height="900" viewBox="0 0 1200 900" fill="none" xmlns="http://www.w3.org/2000/svg">
  <rect width="1200" height="900" fill="#FBFBFC"/>
  <rect x="82" y="92" width="1036" height="716" rx="46" fill="white" stroke="#E1E4EB" stroke-width="8"/>
  <path d="M180 650L350 450L520 650" stroke="#2A43A6" stroke-width="26" stroke-linecap="round" stroke-linejoin="round"/>
  <path d="M520 650L690 410L860 650" stroke="#43A62A" stroke-width="26" stroke-linecap="round" stroke-linejoin="round"/>
  <path d="M860 650L980 520L1040 650" stroke="#A62A43" stroke-width="26" stroke-linecap="round" stroke-linejoin="round"/>
  <path d="M130 680H1070" stroke="#000000" stroke-width="14" stroke-linecap="round"/>
  <path d="M265 520H435" stroke="#000000" stroke-width="12" stroke-linecap="round"/>
  <path d="M605 510H775" stroke="#000000" stroke-width="12" stroke-linecap="round"/>
  <rect x="150" y="150" width="320" height="160" rx="28" fill="#2A43A6"/>
  <path d="M215 215H405" stroke="white" stroke-width="14" stroke-linecap="round"/>
  <path d="M215 255H360" stroke="white" stroke-width="14" stroke-linecap="round"/>
  <rect x="700" y="150" width="350" height="220" rx="28" fill="#F7F9FD" stroke="#D8DFEF" stroke-width="6"/>
  <rect x="755" y="205" width="240" height="28" rx="14" fill="#43A62A"/>
  <rect x="755" y="255" width="190" height="28" rx="14" fill="#A62A43"/>
  <rect x="755" y="305" width="270" height="28" rx="14" fill="#2A43A6"/>
</svg>
