<svg width="1200" height="900" viewBox="0 0 1200 900" fill="none" xmlns="http://www.w3.org/2000/svg">
  <rect width="1200" height="900" fill="#F7FAF5"/>
  <rect x="70" y="70" width="1060" height="760" rx="44" fill="white" stroke="#D9E6D4" stroke-width="8"/>
  <rect x="130" y="130" width="440" height="280" rx="28" fill="#43A62A"/>
  <rect x="610" y="130" width="460" height="70" rx="18" fill="#2A43A6"/>
  <rect x="610" y="225" width="360" height="36" rx="18" fill="#DDE4F7"/>
  <rect x="610" y="280" width="290" height="36" rx="18" fill="#E7EDD6"/>
  <rect x="610" y="335" width="210" height="36" rx="18" fill="#F0DCE1"/>
  <rect x="130" y="470" width="940" height="260" rx="28" fill="#F9FBF8" stroke="#E0E8DE" stroke-width="6"/>
  <path d="M210 640L390 540L520 610L700 500L880 600L990 530" stroke="#2A43A6" stroke-width="18" stroke-linecap="round" stroke-linejoin="round"/>
  <circle cx="210" cy="640" r="18" fill="#A62A43"/>
  <circle cx="390" cy="540" r="18" fill="#43A62A"/>
  <circle cx="520" cy="610" r="18" fill="#2A43A6"/>
  <circle cx="700" cy="500" r="18" fill="#A62A43"/>
  <circle cx="880" cy="600" r="18" fill="#43A62A"/>
  <circle cx="990" cy="530" r="18" fill="#2A43A6"/>
  <path d="M196 258H504" stroke="white" stroke-width="14" stroke-linecap="round"/>
  <path d="M196 300H444" stroke="white" stroke-width="14" stroke-linecap="round"/>
  <path d="M196 342H382" stroke="white" stroke-width="14" stroke-linecap="round"/>
  <rect x="150" y="150" width="190" height="130" rx="22" fill="white" fill-opacity="0.18" stroke="white" stroke-opacity="0.42" stroke-width="4"/>
  <path d="M210 245L255 205L300 235L355 170L430 215L500 175" stroke="white" stroke-width="10" stroke-linecap="round" stroke-linejoin="round"/>
</svg>
