<?xml version="1.0" encoding="UTF-8" standalone="no"?>
<!DOCTYPE svg PUBLIC "-//W3C//DTD SVG 1.1//EN" "http://www.w3.org/Graphics/SVG/1.1/DTD/svg11.dtd">
<svg width="100%" height="100%" viewBox="0 0 477 155" version="1.1" xmlns="http://www.w3.org/2000/svg" xmlns:xlink="http://www.w3.org/1999/xlink" xml:space="preserve" xmlns:serif="http://www.serif.com/" style="fill-rule:evenodd;clip-rule:evenodd;stroke-linejoin:round;stroke-miterlimit:2;">
    <g transform="matrix(1,0,0,1,-0.000003,-230.000008)">
        <g transform="matrix(2.834646,0,0,2.834646,0.000004,230)">
            <g id="g46" transform="matrix(0.261338,0,0,0.261338,-29.452794,-205.80368)">
                <path id="polygon44" d="M326.17,906.13L370.61,861.71L370.61,787.5L326.17,787.5L326.17,906.13Z" style="fill:rgb(67,166,42);fill-rule:nonzero;"/>
                <path id="path44" d="M533.47,787.5L463.69,787.5L397.66,853.53L397.71,853.58L326.17,925.11L326.17,996.7L370.61,996.7L370.61,943.44L390.52,923.53L461.26,994.26L463.69,996.71L526.58,996.71L489.35,959.48L489.35,959.5L421.95,892.11L489.35,824.7L489.35,941.86L543.61,996.12C543.79,996.3 543.94,996.51 544.1,996.71L672.97,996.71L672.97,952.59L533.47,952.59L533.47,787.5Z" style="fill:rgb(67,166,42);fill-rule:nonzero;"/>
                <path id="polygon45" d="M628.31,940.29L672.75,940.29L672.75,831.94L755.55,831.94L755.55,787.5L548.48,787.5L548.48,831.94L628.31,831.94L628.31,940.29Z" style="fill:rgb(67,166,42);fill-rule:nonzero;"/>
            </g>
            <g id="g100" transform="matrix(0.261338,0,0,0.261338,-29.452794,-205.80368)">
                <path id="path92" d="M112.7,787.53L112.7,792.99L146.53,792.99L146.53,798.8L301.82,798.8L301.82,787.54L112.7,787.54L112.7,787.53Z" style="fill:url(#_Linear1);"/>
                <path id="path93" d="M126.34,812.27L126.34,817.72L159.91,817.72L159.91,823.53L301.82,823.53L301.82,812.27L126.34,812.27Z" style="fill:url(#_Linear2);"/>
                <path id="path94" d="M147.62,837L147.62,842.45L248.38,842.45L248.38,848.26L301.82,848.26L301.82,837L147.62,837Z" style="fill:url(#_Linear3);"/>
                <path id="path95" d="M194.84,861.73L194.84,867.19L248.38,867.19L248.38,873L301.82,873L301.82,861.73L194.84,861.73Z" style="fill:url(#_Linear4);"/>
                <path id="path96" d="M134.16,886.47L134.16,891.93L185.93,891.93L185.93,897.74L301.82,897.74L301.82,886.47L134.16,886.47Z" style="fill:url(#_Linear5);"/>
                <path id="path97" d="M112.7,911.2L112.7,916.66L185.93,916.66L185.93,922.47L301.82,922.47L301.82,911.21L112.7,911.21L112.7,911.2Z" style="fill:url(#_Linear6);"/>
                <path id="path98" d="M160.34,935.94L160.34,941.39L248.37,941.39L248.37,947.2L301.81,947.2L301.81,935.94L160.34,935.94Z" style="fill:url(#_Linear7);"/>
                <path id="path99" d="M188.41,960.67L188.41,966.13L248.38,966.13L248.38,971.94L301.82,971.94L301.82,960.68L188.41,960.68L188.41,960.67Z" style="fill:url(#_Linear8);"/>
                <path id="path100" d="M144.74,985.4L144.74,990.85L248.38,990.85L248.38,996.66L301.82,996.66L301.82,985.4L144.74,985.4Z" style="fill:url(#_Linear9);"/>
            </g>
        </g>
    </g>
    <defs>
        <linearGradient id="_Linear1" x1="0" y1="0" x2="1" y2="0" gradientUnits="userSpaceOnUse" gradientTransform="matrix(189.12,0,0,189.12,112.7,9726.442862)"><stop offset="0" style="stop-color:white;stop-opacity:1"/><stop offset="0" style="stop-color:rgb(222,233,184);stop-opacity:1"/><stop offset="0" style="stop-color:rgb(197,216,130);stop-opacity:1"/><stop offset="0.39" style="stop-color:rgb(195,215,127);stop-opacity:1"/><stop offset="1" style="stop-color:rgb(88,172,58);stop-opacity:1"/></linearGradient>
        <linearGradient id="_Linear2" x1="0" y1="0" x2="1" y2="0" gradientUnits="userSpaceOnUse" gradientTransform="matrix(-21994.6632,0,-0,-21994.6632,22296.4832,10021.824225)"><stop offset="0" style="stop-color:white;stop-opacity:1"/><stop offset="0" style="stop-color:rgb(222,233,184);stop-opacity:1"/><stop offset="0" style="stop-color:rgb(197,216,130);stop-opacity:1"/><stop offset="0.39" style="stop-color:rgb(195,215,127);stop-opacity:1"/><stop offset="1" style="stop-color:rgb(88,172,58);stop-opacity:1"/></linearGradient>
        <linearGradient id="_Linear3" x1="0" y1="0" x2="1" y2="0" gradientUnits="userSpaceOnUse" gradientTransform="matrix(-22608.804,0,-0,-22608.804,22910.624,10325.0138)"><stop offset="0" style="stop-color:white;stop-opacity:1"/><stop offset="0" style="stop-color:rgb(222,233,184);stop-opacity:1"/><stop offset="0" style="stop-color:rgb(197,216,130);stop-opacity:1"/><stop offset="0.39" style="stop-color:rgb(195,215,127);stop-opacity:1"/><stop offset="1" style="stop-color:rgb(88,172,58);stop-opacity:1"/></linearGradient>
        <linearGradient id="_Linear4" x1="0" y1="0" x2="1" y2="0" gradientUnits="userSpaceOnUse" gradientTransform="matrix(-20737.0032,0,-0,-20737.0032,21038.8232,10636.877087)"><stop offset="0" style="stop-color:white;stop-opacity:1"/><stop offset="0" style="stop-color:rgb(222,233,184);stop-opacity:1"/><stop offset="0" style="stop-color:rgb(197,216,130);stop-opacity:1"/><stop offset="0.39" style="stop-color:rgb(195,215,127);stop-opacity:1"/><stop offset="1" style="stop-color:rgb(88,172,58);stop-opacity:1"/></linearGradient>
        <linearGradient id="_Linear5" x1="0" y1="0" x2="1" y2="0" gradientUnits="userSpaceOnUse" gradientTransform="matrix(-22325.6056,0,-0,-22325.6056,22627.4256,10940.436775)"><stop offset="0" style="stop-color:white;stop-opacity:1"/><stop offset="0" style="stop-color:rgb(222,233,184);stop-opacity:1"/><stop offset="0" style="stop-color:rgb(197,216,130);stop-opacity:1"/><stop offset="0.39" style="stop-color:rgb(195,215,127);stop-opacity:1"/><stop offset="1" style="stop-color:rgb(88,172,58);stop-opacity:1"/></linearGradient>
        <linearGradient id="_Linear6" x1="0" y1="0" x2="1" y2="0" gradientUnits="userSpaceOnUse" gradientTransform="matrix(189.12,0,0,189.12,112.7,11243.874325)"><stop offset="0" style="stop-color:white;stop-opacity:1"/><stop offset="0" style="stop-color:rgb(222,233,184);stop-opacity:1"/><stop offset="0" style="stop-color:rgb(197,216,130);stop-opacity:1"/><stop offset="0.39" style="stop-color:rgb(195,215,127);stop-opacity:1"/><stop offset="1" style="stop-color:rgb(88,172,58);stop-opacity:1"/></linearGradient>
        <linearGradient id="_Linear7" x1="0" y1="0" x2="1" y2="0" gradientUnits="userSpaceOnUse" gradientTransform="matrix(-22541.8298,0,-0,-22541.8298,22843.6398,11538.018313)"><stop offset="0" style="stop-color:white;stop-opacity:1"/><stop offset="0" style="stop-color:rgb(222,233,184);stop-opacity:1"/><stop offset="0" style="stop-color:rgb(197,216,130);stop-opacity:1"/><stop offset="0.39" style="stop-color:rgb(195,215,127);stop-opacity:1"/><stop offset="1" style="stop-color:rgb(88,172,58);stop-opacity:1"/></linearGradient>
        <linearGradient id="_Linear8" x1="0" y1="0" x2="1" y2="0" gradientUnits="userSpaceOnUse" gradientTransform="matrix(-21254.1681,0,-0,-21254.1681,21555.9881,11850.870887)"><stop offset="0" style="stop-color:white;stop-opacity:1"/><stop offset="0" style="stop-color:rgb(222,233,184);stop-opacity:1"/><stop offset="0" style="stop-color:rgb(197,216,130);stop-opacity:1"/><stop offset="0.39" style="stop-color:rgb(195,215,127);stop-opacity:1"/><stop offset="1" style="stop-color:rgb(88,172,58);stop-opacity:1"/></linearGradient>
        <linearGradient id="_Linear9" x1="0" y1="0" x2="1" y2="0" gradientUnits="userSpaceOnUse" gradientTransform="matrix(-22578.680771,0,-0,-22578.680771,22880.500771,12144.398138)"><stop offset="0" style="stop-color:white;stop-opacity:1"/><stop offset="0" style="stop-color:rgb(222,233,184);stop-opacity:1"/><stop offset="0" style="stop-color:rgb(197,216,130);stop-opacity:1"/><stop offset="0.39" style="stop-color:rgb(195,215,127);stop-opacity:1"/><stop offset="1" style="stop-color:rgb(88,172,58);stop-opacity:1"/></linearGradient>
    </defs>
</svg>
