<?xml version="1.0" encoding="UTF-8" standalone="no"?>
<!-- Created with Inkscape (http://www.inkscape.org/) -->

<svg
   width="168mm"
   height="63.283001mm"
   viewBox="0 0 168 63.283002"
   version="1.1"
   id="svg1"
   inkscape:version="1.3.2 (091e20e, 2023-11-25, custom)"
   sodipodi:docname="klt-light.svg"
   xmlns:inkscape="http://www.inkscape.org/namespaces/inkscape"
   xmlns:sodipodi="http://sodipodi.sourceforge.net/DTD/sodipodi-0.dtd"
   xmlns:xlink="http://www.w3.org/1999/xlink"
   xmlns="http://www.w3.org/2000/svg"
   xmlns:svg="http://www.w3.org/2000/svg">
  <sodipodi:namedview
     id="namedview1"
     pagecolor="#ffffff"
     bordercolor="#000000"
     borderopacity="0.25"
     inkscape:showpageshadow="2"
     inkscape:pageopacity="0.0"
     inkscape:pagecheckerboard="0"
     inkscape:deskcolor="#d1d1d1"
     inkscape:document-units="mm"
     inkscape:zoom="0.72426347"
     inkscape:cx="417.66569"
     inkscape:cy="299.61473"
     inkscape:window-width="1346"
     inkscape:window-height="1032"
     inkscape:window-x="646"
     inkscape:window-y="62"
     inkscape:window-maximized="0"
     inkscape:current-layer="layer1" />
  <defs
     id="defs1">
    <linearGradient
       id="Unbenannter_Verlauf_23"
       data-name="Unbenannter Verlauf 23"
       x1="112.7"
       y1="188.03"
       x2="301.82001"
       y2="188.03"
       gradientUnits="userSpaceOnUse">
      <stop
         offset="0"
         stop-color="#fff"
         id="stop1" />
      <stop
         offset="0"
         stop-color="#dee9b8"
         id="stop2" />
      <stop
         offset="0"
         stop-color="#c5d882"
         id="stop3" />
      <stop
         offset=".39"
         stop-color="#c3d77f"
         id="stop4" />
      <stop
         offset="1"
         stop-color="#58ac3a"
         id="stop5" />
    </linearGradient>
    <linearGradient
       id="Unbenannter_Verlauf_231"
       data-name="Unbenannter Verlauf 23"
       x1="126.34"
       y1="212.77"
       y2="212.77"
       xlink:href="#Unbenannter_Verlauf_23" />
    <linearGradient
       id="Unbenannter_Verlauf_232"
       data-name="Unbenannter Verlauf 23"
       x1="147.62"
       y1="237.5"
       y2="237.5"
       xlink:href="#Unbenannter_Verlauf_23" />
    <linearGradient
       id="Unbenannter_Verlauf_233"
       data-name="Unbenannter Verlauf 23"
       x1="194.84"
       y1="262.23999"
       y2="262.23999"
       xlink:href="#Unbenannter_Verlauf_23" />
    <linearGradient
       id="Unbenannter_Verlauf_234"
       data-name="Unbenannter Verlauf 23"
       x1="134.16"
       y1="286.97"
       y2="286.97"
       xlink:href="#Unbenannter_Verlauf_23" />
    <linearGradient
       id="Unbenannter_Verlauf_235"
       data-name="Unbenannter Verlauf 23"
       y1="311.70001"
       y2="311.70001"
       xlink:href="#Unbenannter_Verlauf_23" />
    <linearGradient
       id="Unbenannter_Verlauf_236"
       data-name="Unbenannter Verlauf 23"
       x1="160.34"
       y1="336.44"
       y2="336.44"
       xlink:href="#Unbenannter_Verlauf_23" />
    <linearGradient
       id="Unbenannter_Verlauf_237"
       data-name="Unbenannter Verlauf 23"
       x1="188.41"
       y1="361.17001"
       y2="361.17001"
       xlink:href="#Unbenannter_Verlauf_23" />
    <linearGradient
       id="Unbenannter_Verlauf_238"
       data-name="Unbenannter Verlauf 23"
       x1="144.74001"
       y1="385.91"
       y2="385.91"
       xlink:href="#Unbenannter_Verlauf_23" />
    <linearGradient
       id="Unbenannter_Verlauf_239"
       data-name="Unbenannter Verlauf 23"
       y1="793.15997"
       y2="793.15997"
       xlink:href="#Unbenannter_Verlauf_23" />
    <linearGradient
       id="Unbenannter_Verlauf_2310"
       data-name="Unbenannter Verlauf 23"
       x1="126.34"
       y1="817.90002"
       y2="817.90002"
       xlink:href="#Unbenannter_Verlauf_23" />
    <linearGradient
       id="Unbenannter_Verlauf_2311"
       data-name="Unbenannter Verlauf 23"
       x1="147.62"
       y1="842.63"
       y2="842.63"
       xlink:href="#Unbenannter_Verlauf_23" />
    <linearGradient
       id="Unbenannter_Verlauf_2312"
       data-name="Unbenannter Verlauf 23"
       x1="194.84"
       y1="867.35999"
       y2="867.35999"
       xlink:href="#Unbenannter_Verlauf_23" />
    <linearGradient
       id="Unbenannter_Verlauf_2313"
       data-name="Unbenannter Verlauf 23"
       x1="134.16"
       y1="892.09998"
       y2="892.09998"
       xlink:href="#Unbenannter_Verlauf_23" />
    <linearGradient
       id="Unbenannter_Verlauf_2314"
       data-name="Unbenannter Verlauf 23"
       y1="916.83002"
       y2="916.83002"
       xlink:href="#Unbenannter_Verlauf_23" />
    <linearGradient
       id="Unbenannter_Verlauf_2315"
       data-name="Unbenannter Verlauf 23"
       x1="160.34"
       y1="941.57001"
       y2="941.57001"
       xlink:href="#Unbenannter_Verlauf_23" />
    <linearGradient
       id="Unbenannter_Verlauf_2316"
       data-name="Unbenannter Verlauf 23"
       x1="188.41"
       y1="966.29999"
       y2="966.29999"
       xlink:href="#Unbenannter_Verlauf_23" />
    <linearGradient
       id="Unbenannter_Verlauf_2317"
       data-name="Unbenannter Verlauf 23"
       x1="144.74001"
       y1="991.03003"
       y2="991.03003"
       xlink:href="#Unbenannter_Verlauf_23" />
  </defs>
  <g
     inkscape:label="Ebene 1"
     inkscape:groupmode="layer"
     id="layer1">
    <g
       id="g46"
       inkscape:export-filename="klt-light.svg"
       inkscape:export-xdpi="96"
       inkscape:export-ydpi="96"
       transform="matrix(0.26133801,0,0,0.26133801,-29.452794,-205.80368)">
      <polygon
         class="st1"
         points="326.17,906.13 370.61,861.71 370.61,787.5 326.17,787.5 "
         id="polygon44"
         style="fill:#43a62a" />
      <path
         class="st1"
         d="m 533.47,787.5 h -6.94 v 0 c 0,0 -62.84,0 -62.84,0 l -66.03,66.03 0.05,0.05 -71.54,71.53 v 71.59 h 44.44 v -53.26 l 19.91,-19.91 70.74,70.73 2.43,2.45 h 62.89 l -37.23,-37.23 v 0.02 l -67.4,-67.39 67.4,-67.41 v 117.16 l 54.26,54.26 c 0.18,0.18 0.33,0.39 0.49,0.59 H 672.97 V 952.59 H 533.47 V 787.52 Z"
         id="path44"
         style="fill:#43a62a" />
      <polygon
         class="st1"
         points="628.31,940.29 672.75,940.29 672.75,831.95 672.75,831.94 755.55,831.94 755.55,787.5 548.48,787.5 548.48,831.94 628.31,831.94 628.31,831.95 "
         id="polygon45"
         style="fill:#43a62a" />
    </g>
    <g
       id="g83"
       transform="matrix(0.26133801,0,0,0.26133801,-29.452794,-205.80368)">
      <g
         id="g67">
        <g
           id="g65">
          <path
             class="st20"
             d="m 399.24,1018.36 6.81,11.11 h -4.11 l -5.15,-8.44 -3.01,3.28 v 5.15 h -3.47 v -17.43 h 3.47 v 7.24 l 6.57,-7.24 h 4.69 l -5.8,6.32 z"
             id="path45"
             style="fill:#ffffff" />
          <path
             class="st20"
             d="m 408.56,1021.77 v -9.73 h 3.47 v 9.73 c 0,3.19 1.01,4.79 3.87,4.79 2.86,0 3.87,-1.6 3.87,-4.79 v -9.73 h 3.47 v 9.73 c 0,4.82 -2.46,7.85 -7.36,7.85 -4.9,0 -7.3,-3.04 -7.3,-7.85 z"
             id="path46"
             style="fill:#ffffff" />
          <path
             class="st20"
             d="m 442.72,1026.03 c -1.56,2.21 -4.33,3.59 -7.06,3.59 -4.91,0 -8.9,-3.99 -8.9,-8.9 0,-4.91 3.99,-8.9 8.9,-8.9 2.45,0 4.91,1.07 6.6,2.85 l -2.27,2.15 c -1.1,-1.01 -2.76,-1.78 -4.36,-1.78 -3.19,0 -5.4,2.58 -5.4,5.77 0,3.19 2.21,5.74 5.4,5.74 1.93,0 3.93,-1.17 5.03,-2.52 l 2.06,1.99 z"
             id="path47"
             style="fill:#ffffff" />
          <path
             class="st20"
             d="m 456.13,1022.54 h -6.81 v 6.93 h -3.47 v -17.43 h 3.47 v 7.43 h 6.81 v -7.43 h 3.47 v 17.43 h -3.47 z"
             id="path48"
             style="fill:#ffffff" />
          <path
             class="st20"
             d="m 467.36,1026.31 h 8.65 v 3.16 h -12.12 v -17.43 h 12.12 v 3.16 h -8.65 v 4.27 h 6.93 v 3.07 h -6.93 z"
             id="path49"
             style="fill:#ffffff" />
          <path
             class="st20"
             d="m 491.39,1029.47 v -6.04 l -8.07,-5.25 v 11.29 h -3.47 v -17.89 l 11.54,7.76 v -7.3 h 3.47 v 17.43 z"
             id="path50"
             style="fill:#ffffff" />
          <path
             class="st20"
             d="m 499.15,1012.04 h 3.47 v 14.33 h 8.65 v 3.1 h -12.12 z"
             id="path51"
             style="fill:#ffffff" />
          <path
             class="st20"
             d="m 514.16,1021.77 v -9.73 h 3.47 v 9.73 c 0,3.19 1.01,4.79 3.87,4.79 2.86,0 3.87,-1.6 3.87,-4.79 v -9.73 h 3.47 v 9.73 c 0,4.82 -2.46,7.85 -7.36,7.85 -4.9,0 -7.3,-3.04 -7.3,-7.85 z"
             id="path52"
             style="fill:#ffffff" />
          <path
             class="st20"
             d="m 533.12,1012.04 h 12.12 v 3.16 h -8.65 v 5.12 h 6.93 v 3.07 h -6.93 v 6.07 h -3.47 v -17.43 z"
             id="path53"
             style="fill:#ffffff" />
          <path
             class="st20"
             d="m 547.55,1012.04 h 12.61 v 3.16 h -4.57 v 14.27 h -3.47 v -14.27 h -4.57 z"
             id="path54"
             style="fill:#ffffff" />
          <path
             class="st20"
             d="m 563.23,1021.77 v -9.73 h 3.47 v 9.73 c 0,3.19 1.01,4.79 3.87,4.79 2.86,0 3.87,-1.6 3.87,-4.79 v -9.73 h 3.47 v 9.73 c 0,4.82 -2.46,7.85 -7.36,7.85 -4.9,0 -7.3,-3.04 -7.3,-7.85 z"
             id="path55"
             style="fill:#ffffff" />
          <path
             class="st20"
             d="m 593.73,1029.47 v -6.04 l -8.07,-5.25 v 11.29 h -3.47 v -17.89 l 11.54,7.76 v -7.3 h 3.47 v 17.43 z"
             id="path56"
             style="fill:#ffffff" />
          <path
             class="st20"
             d="m 614.2,1028.36 c -1.35,0.8 -2.92,1.26 -4.57,1.26 -4.91,0 -8.9,-3.99 -8.9,-8.9 0,-4.91 3.99,-8.9 8.9,-8.9 2.45,0 4.91,1.07 6.6,2.85 l -2.27,2.15 c -1.1,-1.01 -2.76,-1.78 -4.36,-1.78 -3.19,0 -5.4,2.58 -5.4,5.77 0,3.19 2.21,5.74 5.4,5.74 1.44,0 2.7,-0.46 3.71,-1.29 v -2.15 h -3.5 v -3.1 h 6.97 v 9.45 h -1.69 z"
             id="path57"
             style="fill:#ffffff" />
          <path
             class="st20"
             d="m 630.89,1015.97 c -0.95,-0.37 -3.04,-0.95 -4.17,-0.95 -2.73,0 -2.79,1.6 -2.79,1.96 0,3.19 9.05,2.09 9.05,8.01 0,2.85 -3.34,4.63 -5.83,4.63 -2.49,0 -4.45,-0.31 -6.6,-1.69 l 1.32,-2.61 c 0.83,0.49 2.52,1.23 4.85,1.23 1.44,0 2.82,-0.8 2.82,-1.81 0,-2.88 -9.08,-1.78 -9.08,-7.92 0,-3.13 2.21,-5 6.17,-5 2.09,0 4.51,0.89 5.52,1.35 l -1.26,2.79 z"
             id="path58"
             style="fill:#ffffff" />
          <path
             class="st20"
             d="m 635.19,1012.04 h 12.61 v 3.16 h -4.57 v 14.27 h -3.47 v -14.27 h -4.57 z"
             id="path59"
             style="fill:#ffffff" />
          <path
             class="st20"
             d="m 654.33,1026.31 h 8.65 v 3.16 h -12.12 v -17.43 h 12.12 v 3.16 h -8.65 v 4.27 h 6.93 v 3.07 h -6.93 z"
             id="path60"
             style="fill:#ffffff" />
          <path
             class="st20"
             d="m 681.25,1026.03 c -1.56,2.21 -4.33,3.59 -7.06,3.59 -4.91,0 -8.9,-3.99 -8.9,-8.9 0,-4.91 3.99,-8.9 8.9,-8.9 2.45,0 4.91,1.07 6.6,2.85 l -2.27,2.15 c -1.1,-1.01 -2.76,-1.78 -4.36,-1.78 -3.19,0 -5.4,2.58 -5.4,5.77 0,3.19 2.21,5.74 5.4,5.74 1.93,0 3.93,-1.17 5.03,-2.52 l 2.06,1.99 z"
             id="path61"
             style="fill:#ffffff" />
          <path
             class="st20"
             d="m 694.66,1022.54 h -6.81 v 6.93 h -3.47 v -17.43 h 3.47 v 7.43 h 6.81 v -7.43 h 3.47 v 17.43 h -3.47 z"
             id="path62"
             style="fill:#ffffff" />
          <path
             class="st20"
             d="m 713.96,1029.47 v -6.04 l -8.07,-5.25 v 11.29 h -3.47 v -17.89 l 11.54,7.76 v -7.3 h 3.47 v 17.43 z"
             id="path63"
             style="fill:#ffffff" />
          <path
             class="st20"
             d="m 721.72,1012.04 h 3.47 v 17.43 h -3.47 z"
             id="path64"
             style="fill:#ffffff" />
          <path
             class="st20"
             d="m 738.42,1018.36 6.81,11.11 h -4.11 l -5.15,-8.44 -3.01,3.28 v 5.15 h -3.47 v -17.43 h 3.47 v 7.24 l 6.57,-7.24 h 4.69 l -5.8,6.32 z"
             id="path65"
             style="fill:#ffffff" />
        </g>
        <path
           class="st20"
           d="m 414.12,1008.91 c 0,0.87 -0.67,1.54 -1.54,1.54 -0.87,0 -1.54,-0.67 -1.54,-1.54 0,-0.87 0.67,-1.54 1.54,-1.54 0.87,0 1.54,0.67 1.54,1.54 z m 6.95,0 c 0,0.87 -0.67,1.54 -1.54,1.54 -0.87,0 -1.54,-0.67 -1.54,-1.54 0,-0.87 0.67,-1.54 1.54,-1.54 0.87,0 1.54,0.67 1.54,1.54 z"
           id="path66"
           style="fill:#ffffff" />
        <path
           class="st20"
           d="m 519.29,1008.91 c 0,0.87 -0.67,1.54 -1.54,1.54 -0.87,0 -1.54,-0.67 -1.54,-1.54 0,-0.87 0.67,-1.54 1.54,-1.54 0.87,0 1.54,0.67 1.54,1.54 z m 6.94,0 c 0,0.87 -0.67,1.54 -1.54,1.54 -0.87,0 -1.54,-0.67 -1.54,-1.54 0,-0.87 0.67,-1.54 1.54,-1.54 0.87,0 1.54,0.67 1.54,1.54 z"
           id="path67"
           style="fill:#ffffff" />
      </g>
      <g
         id="g82">
        <path
           class="st20"
           d="m 124.41,1026.32 h 8.66 v 3.16 h -12.13 v -17.45 h 12.13 v 3.16 h -8.66 v 4.27 h 6.94 v 3.07 h -6.94 v 3.78 z"
           id="path68"
           style="fill:#ffffff" />
        <path
           class="st20"
           d="m 149.37,1029.48 v -6.05 l -8.08,-5.25 v 11.3 h -3.47 v -17.91 l 11.55,7.77 v -7.31 h 3.47 v 17.45 z"
           id="path69"
           style="fill:#ffffff" />
        <path
           class="st20"
           d="m 161.53,1026.32 h 8.66 v 3.16 h -12.13 v -17.45 h 12.13 v 3.16 h -8.66 v 4.27 h 6.94 v 3.07 h -6.94 v 3.78 z"
           id="path70"
           style="fill:#ffffff" />
        <path
           class="st20"
           d="m 181.34,1023.09 h -2.92 v 6.39 h -3.47 v -17.45 h 8.23 c 2.89,0 5.22,2.3 5.22,5.53 0,2.4 -1.32,4.3 -3.19,5.13 l 3.47,6.79 h -4.09 l -3.26,-6.39 z m 3.59,-5.5 c 0,-1.41 -0.89,-2.37 -2,-2.37 h -4.52 v 4.67 h 4.52 c 1.11,0 2,-0.89 2,-2.3 z"
           id="path71"
           style="fill:#ffffff" />
        <path
           class="st20"
           d="m 205.51,1028.37 c -1.35,0.8 -2.92,1.26 -4.58,1.26 -4.91,0 -8.91,-3.99 -8.91,-8.91 0,-4.92 3.99,-8.91 8.91,-8.91 2.46,0 4.91,1.08 6.6,2.86 l -2.27,2.15 c -1.11,-1.01 -2.76,-1.78 -4.36,-1.78 -3.19,0 -5.41,2.58 -5.41,5.77 0,3.19 2.21,5.74 5.41,5.74 1.44,0 2.7,-0.46 3.72,-1.29 v -2.15 h -3.5 v -3.1 h 6.97 v 9.46 h -1.69 l -0.89,-1.11 z"
           id="path72"
           style="fill:#ffffff" />
        <path
           class="st20"
           d="m 213.15,1012.03 h 3.47 v 17.45 h -3.47 z"
           id="path73"
           style="fill:#ffffff" />
        <path
           class="st20"
           d="m 225.31,1026.32 h 8.66 v 3.16 h -12.13 v -17.45 h 12.13 v 3.16 h -8.66 v 4.27 h 6.94 v 3.07 h -6.94 v 3.78 z"
           id="path74"
           style="fill:#ffffff" />
        <path
           class="st20"
           d="m 248.72,1015.97 c -0.95,-0.37 -3.04,-0.95 -4.18,-0.95 -2.73,0 -2.8,1.6 -2.8,1.97 0,3.19 9.06,2.09 9.06,8.02 0,2.86 -3.35,4.64 -5.84,4.64 -2.49,0 -4.45,-0.31 -6.6,-1.69 l 1.32,-2.61 c 0.83,0.49 2.52,1.23 4.85,1.23 1.44,0 2.83,-0.8 2.83,-1.81 0,-2.89 -9.09,-1.78 -9.09,-7.92 0,-3.13 2.21,-5.01 6.17,-5.01 2.09,0 4.52,0.89 5.53,1.35 l -1.26,2.8 z"
           id="path75"
           style="fill:#ffffff" />
        <path
           class="st20"
           d="m 255.16,1012.03 h 7.96 c 2.89,0 5.22,2.33 5.22,5.84 0,3.51 -2.33,5.77 -5.22,5.77 h -4.48 v 5.84 h -3.47 v -17.45 z m 9.71,5.87 c 0,-1.72 -0.95,-2.49 -2.06,-2.49 h -4.18 v 5.01 h 4.18 c 1.11,0 2.06,-0.83 2.06,-2.52 z"
           id="path76"
           style="fill:#ffffff" />
        <path
           class="st20"
           d="m 280.71,1025.98 h -6.67 l -1.75,3.5 h -3.84 l 8.94,-17.91 8.91,17.91 h -3.84 z m -1.5,-3.1 -1.81,-3.69 -1.84,3.69 h 3.66 z"
           id="path77"
           style="fill:#ffffff" />
        <path
           class="st20"
           d="m 296.19,1023.09 h -2.92 v 6.39 h -3.47 v -17.45 h 8.23 c 2.89,0 5.22,2.3 5.22,5.53 0,2.4 -1.32,4.3 -3.19,5.13 l 3.47,6.79 h -4.08 z m 3.59,-5.5 c 0,-1.41 -0.89,-2.37 -2,-2.37 h -4.52 v 4.67 h 4.52 c 1.11,0 2,-0.89 2,-2.3 z"
           id="path78"
           style="fill:#ffffff" />
        <path
           class="st20"
           d="m 311.11,1026.32 h 8.66 v 3.16 h -12.13 v -17.45 h 12.13 v 3.16 h -8.66 v 4.27 h 6.94 v 3.07 h -6.94 v 3.78 z"
           id="path79"
           style="fill:#ffffff" />
        <path
           class="st20"
           d="m 336.08,1029.48 v -6.05 l -8.08,-5.25 v 11.3 h -3.47 v -17.91 l 11.55,7.77 v -7.31 h 3.47 v 17.45 z"
           id="path80"
           style="fill:#ffffff" />
        <path
           class="st20"
           d="m 344.77,1012.03 h 6.3 c 4.91,0 8.38,3.87 8.38,8.78 0,4.91 -3.47,8.66 -8.38,8.66 h -6.3 v -17.45 z m 11.21,8.88 c 0,-3.2 -2.27,-5.68 -5.47,-5.68 h -2.27 v 11.15 h 2.27 c 3.2,0 5.47,-2.27 5.47,-5.47 z"
           id="path81"
           style="fill:#ffffff" />
        <path
           class="st20"
           d="m 366.91,1026.32 h 8.66 v 3.16 h -12.13 v -17.45 h 12.13 v 3.16 h -8.66 v 4.27 h 6.94 v 3.07 h -6.94 v 3.78 z"
           id="path82"
           style="fill:#ffffff" />
      </g>
    </g>
    <g
       id="g100"
       transform="matrix(0.26133801,0,0,0.26133801,-29.452794,-205.80368)">
      <path
         class="st9"
         d="m 112.7,787.53 v 5.46 h 33.83 v 5.81 H 301.82 V 787.54 H 112.7 Z"
         id="path92"
         style="fill:url(#Unbenannter_Verlauf_239);fill-rule:evenodd" />
      <path
         class="st12"
         d="m 126.34,812.27 v 5.45 h 33.57 v 5.81 h 141.91 v -11.26 z"
         id="path93"
         style="fill:url(#Unbenannter_Verlauf_2310);fill-rule:evenodd" />
      <path
         class="st11"
         d="m 147.62,837 v 5.45 h 100.76 v 5.81 h 53.44 V 837 Z"
         id="path94"
         style="fill:url(#Unbenannter_Verlauf_2311);fill-rule:evenodd" />
      <path
         class="st15"
         d="m 194.84,861.73 v 5.46 h 53.54 V 873 h 53.44 v -11.27 z"
         id="path95"
         style="fill:url(#Unbenannter_Verlauf_2312);fill-rule:evenodd" />
      <path
         class="st14"
         d="m 134.16,886.47 v 5.46 h 51.77 v 5.81 h 115.89 v -11.27 z"
         id="path96"
         style="fill:url(#Unbenannter_Verlauf_2313);fill-rule:evenodd" />
      <path
         class="st13"
         d="m 112.7,911.2 v 5.46 h 73.23 v 5.81 H 301.82 V 911.21 H 112.7 Z"
         id="path97"
         style="fill:url(#Unbenannter_Verlauf_2314);fill-rule:evenodd" />
      <path
         class="st16"
         d="m 160.34,935.94 v 5.45 h 88.03 v 5.81 h 53.44 v -11.26 z"
         id="path98"
         style="fill:url(#Unbenannter_Verlauf_2315);fill-rule:evenodd" />
      <path
         class="st17"
         d="m 188.41,960.67 v 5.46 h 59.97 v 5.81 h 53.44 V 960.68 H 188.41 Z"
         id="path99"
         style="fill:url(#Unbenannter_Verlauf_2316);fill-rule:evenodd" />
      <path
         class="st18"
         d="m 144.74,985.4 v 5.45 h 103.64 v 5.81 h 53.44 V 985.4 Z"
         id="path100"
         style="fill:url(#Unbenannter_Verlauf_2317);fill-rule:evenodd" />
    </g>
  </g>
</svg>
