<svg xmlns="http://www.w3.org/2000/svg" viewBox="0 0 1556.11 390.7"><defs><style>.cls-1{fill:#e30613;}.cls-1,.cls-2{fill-rule:evenodd;}</style></defs><g id="Lag_2" data-name="Lag 2"><g id="New_Layer" data-name="New Layer"><path class="cls-1" d="M778.92,19.51c-3,80.12-31.11,126.3-91.06,150-29.16,11.49-63.42,14.2-207.93,16.37-41.41.65-135.84,2.39-209.77,3.8s-165,3.25-202.4,4S-.11,195.14,0,195.25s111.12,2.6,299.43,6.39c44.12.87,114.59,2.06,156.65,2.71,164.13,2.39,200.88,5,230,16.26,37.19,14.31,62.34,37.19,76.65,69.82,9.43,21.68,15,49.22,16.15,80.33l.65,19.51,1.3-20.7c2.28-37.73,7.59-61.58,18.87-84.56q21.94-45,75.34-64.94c29.27-10.84,64.72-13.33,226-15.72,41.41-.65,111.66-1.84,156.11-2.71,187.11-3.68,298.66-6.07,298.88-6.29s-43-1.19-95.94-2.16c-268-5.32-314.28-6.18-383.45-7.27-153.94-2.38-182-5.09-216-21.25a133.09,133.09,0,0,1-39-27.86c-10.63-11-14.86-17-21.47-30-11.38-22.65-17-47.37-19.41-85.64L779.57,0Z"/><path class="cls-2" d="M664.23,16.91c-6.73,2.82-10.85,9.22-10.85,17,0,9.54,7.49,16.91,17.24,16.91,10-.1,16.48-6.28,17.24-16.58.43-6.72-1.84-11.39-7.59-15.61C676.91,16.15,668.24,15.18,664.23,16.91ZM680.6,23.2c3.79,3.69,4.22,4.77,4.22,9.43,0,15.07-16.69,21.25-25.91,9.54-3.25-4.12-3.79-9-1.73-14.31,2.38-5.85,7.05-8.89,14-8.89C675.83,19,676.91,19.41,680.6,23.2Z"/><path class="cls-2" d="M663.14,33.06c0,9,.11,9.76,2.17,9.76,1.73,0,2.17-.76,2.17-3.79,0-3.25.32-3.8,2.49-3.8a6,6,0,0,1,3.8,1.3,6,6,0,0,1,1.3,3.8c0,1.52.65,2.49,1.62,2.49,1.95,0,2.17-3.47.44-6.72-.87-1.52-.87-2.49,0-3.36a7.27,7.27,0,0,0,1.19-4.23c0-3.68-3-5.2-10.41-5.2h-4.77Zm11.6-4.77c.76,2.06-2.27,4.77-5.31,4.77-1.41,0-1.95-.86-1.95-3.25,0-2.92.32-3.25,3.25-3.25C672.79,26.56,674.31,27.21,674.74,28.29Z"/><path class="cls-2" d="M421.17,66.67c-20.7,3.69-37.83,13.55-45,25.8-3.79,6.4-4.55,17.13-1.95,25.26,2.6,7.81,11.38,16.48,21.57,21.36,12.25,6,21.9,8,40.33,8.56,17.89.65,28.62-.86,39.57-5.31,7.27-3,18.65-9.76,18.65-11.16,0-.65-1.09-1.52-2.6-2-2.06-.75-3.91-.1-9.11,2.93-11.06,6.72-21.79,9.54-36.32,9.76-15,.11-21.25-1.74-28.51-8.13-7.15-6.18-9.65-12.14-10.3-24.29-.87-17.88,4.77-30.24,16.7-36.31,4.77-2.39,6.61-2.71,17.78-2.71,9.64,0,13.66.43,17.88,2.06A64.86,64.86,0,0,1,482.75,88c8.67,9.21,9.54,8.35,10-8.67l.33-13.77h-2.93c-1.52,0-4.23,1.19-6.07,2.71-3.9,3.25-4.23,3.25-16.59.43C456.73,66.24,430.17,65.05,421.17,66.67Z"/><path class="cls-2" d="M558.85,66.67c-22.22,3.8-41.41,16-46,29.49-5.75,17,1.73,32.31,20.81,42.28,12.25,6.5,21.47,8.56,40.33,9.21,29.7,1.09,48.78-4.33,63.42-18,8-7.48,10-11.82,10-22.88s-1.95-15.39-10-22.87c-9.22-8.67-19.84-13.66-35.88-16.8C593,65.48,567.63,65.26,558.85,66.67Zm37.73,6.83c11.92,6.07,16.15,15.18,16.15,34.37,0,12-.11,12.79-3.68,19.94-5.86,12-14.86,16.37-32.09,15.62-10.3-.44-16.48-2.61-22-7.7-7.05-6.51-10.63-21.36-8.78-37,1.3-11.71,6-20.27,13.44-24.28,7.16-4,9.76-4.56,20.6-4.23C589.42,70.57,591.92,71,596.58,73.5Z"/><path class="cls-2" d="M36.53,68.3c0,1.19,1.2,1.62,4.12,1.62,6.18.11,12.47,1.85,14,3.91,1.73,2.38,2.06,62.66.32,67-1.19,3.26-8.13,5.53-14,4.56-5.42-.87-6.4-2.28-3.47-5.42,6.07-6.51-.43-13-12.14-12.25-15.18,1-17,11.49-3.15,17.88,5.42,2.61,7.81,2.93,20,3.26,23.63.76,37.4-4.12,42.93-15,2.28-4.56,2.39-6,2.39-31.66,0-31.44-.33-30.46,10.73-31.76,4.55-.55,6.61-1.2,6.61-2.28,0-1.3-5.53-1.52-34.15-1.52C41.09,66.67,36.53,66.89,36.53,68.3Z"/><path class="cls-2" d="M111.34,68.19q0,1.62,5.2,2.28c8,1.08,10.95,2.6,11.93,6.07.43,1.73.54,16.37.21,32.63l-.54,29.59-3.79,1.85a21.53,21.53,0,0,1-8.35,1.95c-3.47,0-4.66.43-4.66,1.62,0,1.41,4.55,1.63,34.25,1.63,26.89,0,34.15-.32,33.83-1.41-.33-.65-3.36-1.62-6.83-2.06s-7.48-1.62-8.78-2.49l-2.6-1.63V75.45l2.71-2.06c1.51-1.3,5.31-2.38,9.21-2.82,4.45-.54,6.5-1.19,6.18-2.06s-9.22-1.4-34.15-1.62C116.22,66.67,111.34,66.89,111.34,68.19Z"/><path class="cls-2" d="M186.14,68.19q0,1.62,5.2,2.28c12.9,1.73,12.15-.44,12.15,35.34,0,17.78-.44,31.22-1.09,32.41-1.3,2.39-6.61,4.34-12,4.34-3,0-4.23.43-4.23,1.62,0,1.41,3.25,1.63,22.77,1.63s22.76-.22,22.76-1.63c0-1.19-1.19-1.62-4-1.62-6.29,0-12.14-2.06-13.88-4.77-1.41-2.06-1.62-7-1.41-30.57l.33-28.08,23.63,33.39c21.36,30,24,33.28,26.78,33.28s5.1-3,25.48-32.85c12.36-18,23.2-33.5,24-34.36,1.3-1.3,1.51,2.82,1.51,28.08,0,17.77-.43,30.35-1.08,31.54-1.19,2.28-7.26,4.34-12.69,4.34-2.49,0-3.57.54-3.57,1.62,0,1.41,4.33,1.63,32.52,1.63,21.57,0,32.52-.32,32.52-1.08,0-1.41-1.19-1.85-7.91-2.71-9.65-1.3-9.43-.55-9.43-35.13,0-35.34-.22-34.58,10.19-36,6.83-.87,7.7-1.3,6.61-3-.43-.75-8.89-1.19-24.72-1.19H312.44L296.72,89.11C288,101.47,279.59,113.72,278,116.22s-3.47,4.66-3.9,4.66-9.32-12.15-19.73-27.11l-18.86-27-24.61-.11C190,66.67,186.14,66.89,186.14,68.19Z"/><path class="cls-2" d="M1151,247.82c-8.24,2.5-12,9.76-9.11,17.68.87,2.38,1.84,5.2,2.17,6.07.32,1.08-1.2,2.49-4.56,4.33-11,5.86-14.85,17.56-8,25.37,6.18,7.05,16.48,7.91,27.54,2.28l6-3,3.36,2.93c6.61,5.53,14.64,5.2,20.38-1,3.25-3.57,4.55-7,2.49-7a4.49,4.49,0,0,0-2.27,1.62c-2.17,2.6-5.1,1.95-9.43-2.06l-4-3.68,4.66-6.83c6.39-9.33,8.78-11.82,11.16-11.82,1.09,0,2-.54,2-1.08s-4-1.09-9.75-1.09c-9.43,0-12.69,1.19-7,2.6,3.69,1,3.58,5.42-.32,10.63l-3,4-5.75-7.59c-3-4.23-5.85-8.24-6.17-8.89-.33-.87,1.51-2.38,4.44-3.79,12.14-5.86,8.89-19.3-5-20.28A29.65,29.65,0,0,0,1151,247.82Zm7.69,3.15c2.39,1.3,5.31,6.61,5.31,9.65,0,2.06-3.79,6.61-5.52,6.61-.33,0-2-2-3.58-4.34-3.25-5-3.69-10.19-.87-11.81C1156.3,249.67,1156.19,249.67,1158.68,251Zm-4.44,35a120.58,120.58,0,0,1,7.37,11.17c.54,2.17-6.29,3.9-10.19,2.6-4.66-1.52-10.19-9.75-10.19-15.07,0-3.36,3.36-8.78,5.31-8.78C1146.87,275.9,1150.33,280.46,1154.24,286Z"/><path class="cls-2" d="M1245.63,248.15c-15.4,3.79-24.18,16.37-22.88,32.63s13.77,26.89,31.22,27c13,0,23.85-6.28,29-16.58,2.38-5,3.14-17.24,1.41-23.53-1.84-6.5-9.32-14.74-15.94-17.56A38.33,38.33,0,0,0,1245.63,248.15Zm15.72,4.55c5,3.47,7.15,9.76,7.58,22.66.55,14.2-.75,19.84-5.63,25.15-3.15,3.47-4.23,3.9-8.57,3.9-6.18,0-9.75-2.27-12.9-8.23-2.27-4-2.49-6.08-2.49-18.65s.32-14.64,2.38-18.65c3.26-6,6.29-7.91,12.25-7.91C1256.68,251,1260.05,251.73,1261.35,252.7Z"/><path class="cls-2" d="M1375.72,247.82c-15.4,3-24.61,14.31-24.61,30.25,0,6.94.43,9,3.14,13.88,5.86,10.73,15.07,15.72,28.84,15.72,10.08-.11,16.26-2.5,23-9.22a23.19,23.19,0,0,0,6.51-11.27c2.27-8,2.27-11.6.32-18.22-3.36-11.16-10.3-17.67-22-20.7C1384.07,246.52,1382.55,246.42,1375.72,247.82Zm14.63,5.86c4.34,3.68,6.83,10.3,7.48,20.05,1.52,22.45-7.48,35.35-20.59,29.49-3.26-1.52-5.21-3.25-6.51-5.85-6.39-13.55-4.34-38.05,3.9-44.45C1378.43,250,1386.45,250.32,1390.35,253.68Z"/><path class="cls-2" d="M1059.05,249.45c-7,2.6-14.85,10.84-16.91,17.78-3.58,12.14-1.73,22.22,5.53,30.35A32.36,32.36,0,0,0,1085,305c7.16-3.58,12.8-9,11.06-10.74-.87-.86-2.6,0-6.39,2.82-6.62,5.1-9,6-16.16,6-11.92,0-17.45-9.64-16.58-28.62.75-16.58,5.42-23.41,16-23.41a21.28,21.28,0,0,1,7.48,1.52c3.58,1.84,9.11,7.91,11.49,12.57,2.82,5.53,3.8,3.8,3.8-7.05,0-10.51-.87-12.46-3.8-8.45-1.3,1.73-1.84,1.73-6.72.32C1077.59,247.72,1064.69,247.5,1059.05,249.45Z"/><path class="cls-2" d="M887.55,249.78c0,.54,1.52,1.51,3.25,2.16l3.25,1.09v18c0,21.69,1,26.35,6.51,31.33,3.79,3.47,11.38,6.08,17.34,6.08,6.51,0,13.77-2.61,17.46-6.4,5.2-5.2,6.39-11.06,6.39-32.2V253l3.26-1.09c5.74-2.06,3.47-3.14-6.51-3.14-9.43,0-12.68,1.19-7,2.6s6.17,4.34,5.74,23.64c-.43,19.62-1.52,23.3-7.37,26.34-3.79,1.95-12.9,2.06-15.18.22-5.09-3.91-5.42-5.64-5.42-27.54,0-19.51.11-20.92,2.06-22a12.82,12.82,0,0,1,4.34-1.08c1.3,0,2.27-.54,2.27-1.09s-5.74-1.08-15.17-1.08C894.38,248.8,887.55,249.23,887.55,249.78Z"/><path class="cls-2" d="M951.51,249.88a1.33,1.33,0,0,0,1.41,1.09c2.71,0,4.77,3.58,13.55,23.31,14.64,33,15.4,34.36,16.59,33.93.65-.22,6-12.25,11.82-26.67s11.27-27,11.92-27.86a7.28,7.28,0,0,1,3.36-2.17c4.77-1.52,1.41-2.71-7.7-2.71-5.74,0-9.75.43-9.75,1.08s1,1.09,2.06,1.09c3.68,0,5.53,1.19,5.53,3.68,0,2.17-10.41,29.49-11.82,31.23-.76,1-14.2-29.17-14.2-31.77,0-2,2.17-3.14,5.53-3.14,1.08,0,2.06-.54,2.06-1.09s-5.75-1.08-15.18-1.08S951.51,249.23,951.51,249.88Z"/><path class="cls-2" d="M1295.17,251.73c0,1.73-.33,5.63-.65,8.67-.87,7.26,1.19,7.81,4.44,1.19,3.47-7,6.83-8.89,16.92-9.43,4.66-.11,8.56,0,8.56.33s-7.59,12.35-16.8,26.56-16.81,26.12-16.81,26.56,11.93.65,26.46.65h26.45l.65-7.37c.43-4,1-8.57,1.3-10.3,1-5-2.06-3.36-5,2.71a26.08,26.08,0,0,1-5.53,7.69c-2.92,2.06-15.93,4.34-22,3.8l-3.69-.33,16.69-25.8c9.22-14.2,16.7-26.23,16.7-26.88s-9.76-1-23.85-1h-23.85Z"/><path class="cls-2" d="M1418.76,249.34c0,.33,1.73,2.06,3.79,3.9l3.8,3.37v21.14c0,11.6-.44,21.89-1.09,23.09a6.23,6.23,0,0,1-3.79,2.6c-6,1.52-2.39,2.82,7.59,2.82,10.73,0,13-1.09,6.61-3.26-2.06-.65-4-1.95-4.34-2.81s-.65-9.76-.65-19.63v-18l4.66,5.2c2.5,2.93,11.28,13.12,19.52,22.66s15.5,17.45,16.26,17.45c1,0,1.41-6.61,1.62-27.42l.22-27.54,3.25-1.19c5.53-2.06,3.69-2.93-6.5-2.93-9.65,0-12.79,1.3-6.4,2.71,4.66,1.08,5.42,4.12,5.1,19.3l-.33,12.9-15-17.46-15-17.45h-9.75C1423.09,248.8,1418.76,249,1418.76,249.34Z"/><path class="cls-2" d="M1482.72,249.56c0,.54,1.62,1.63,3.58,2.49l3.47,1.63v47.7l-3.47,1.52c-2,.86-3.58,2-3.58,2.49s11.71.87,26,.87h26l.54-2.5c3.25-14.31,3.36-16.15,1.08-15.28a4.51,4.51,0,0,0-2.17,2.49c-1.08,3.58-8.24,9.65-12.79,10.84a33.38,33.38,0,0,1-10,1l-5.42-.33-.33-12.25-.32-12.36,3.57.76a12.42,12.42,0,0,1,9.44,9.22c.32,2.06,1.3,3.79,2,4.12,1,.32,1.31-3.36,1.31-15,0-16.16-1-18.76-3.91-10.3-1.73,5.31-5,8.13-9.21,8.13h-3.25l.32-11.17.33-11.06,6.72-.32c9.75-.43,13.87,1.63,16.91,8.35,1.3,3,2.71,5.53,3.25,5.53s.76-3.91.76-8.68V248.8h-25.48C1494.21,248.8,1482.72,249.13,1482.72,249.56Z"/><polygon class="cls-2" points="1011.14 286.74 1011.14 292.16 1021.98 292.16 1032.82 292.16 1032.82 286.74 1032.82 281.32 1021.98 281.32 1011.14 281.32 1011.14 286.74"/><path class="cls-2" d="M1170.5,340.41c0,7.69,1.3,9.1,3.25,3.36a10,10,0,0,1,9.76-7.16h3.25l-.22,18.65-.32,18.75-3.58,1.2c-5.85,1.84-2.71,2.6,10.62,2.6s16.48-.76,10.63-2.6l-3.58-1.2-.32-18.75-.22-18.65h3c4,0,7.7,2.71,9.54,7.27,2.17,5.09,3.69,3.46,3.69-4.12v-6.4H1170.5Z"/><path class="cls-2" d="M1278.91,334.12c0,.54,1,1.52,2.17,2.27,2.06,1.2,2.16,2.5,2.16,19.19s-.1,18-2.16,19.19c-3.8,2.39-2.39,3,7,3,8.46,0,11.6-1.09,7.59-2.6-1.3-.44-1.62-2.71-1.62-10.74,0-11,.75-12.68,5.52-12.68,3.58,0,4.23,1.95,4.23,13.23,0,7.15-.32,8.56-2.17,9.86-3.25,2.28-1.51,2.93,7.81,2.93,8,0,10.3-1,6.94-2.93-1.09-.65-1.63-4-2-11.92-.44-12.36-1.74-15-7.92-16.16-2.92-.54-8.24,1-12.46,3.58-.33.22-.55-3.47-.55-8V333.9l-7.26-.32C1282.16,333.36,1278.91,333.68,1278.91,334.12Z"/><path class="cls-2" d="M1399.24,334.34c0,.54.76,1.19,1.63,1.62,1.41.43,1.63,3.69,1.63,19.52s-.22,19-1.63,19.51c-.87.32-1.63,1.08-1.63,1.73,0,1.3,16.91,1.52,17.78.22.33-.54-.43-1.73-1.62-2.71-1.85-1.73-2.06-3.36-2.06-21.36V333.36h-7C1402.39,333.36,1399.24,333.79,1399.24,334.34Z"/><path class="cls-2" d="M1221.78,348.43a18.21,18.21,0,0,0-6.18,4.66c-4.12,6.4-2.82,17.67,2.71,21.68,6.61,4.88,16.8,4.23,22.22-1.41,3.8-4,2.82-5-2.17-2.06s-9.75,2.17-12-2.17a15,15,0,0,1-1.63-5.42c0-2.06.65-2.16,9.33-2.16h9.43l-.76-3.47c-1-5.1-3.58-8.46-7.7-10.19C1230.12,345.83,1227.31,346,1221.78,348.43Zm11,2.93a16.74,16.74,0,0,1,.65,4.33c0,2.39-.44,2.6-5,2.6s-4.88-.21-4.23-2.49a40.55,40.55,0,0,0,1.19-4.34C1226.11,349.08,1231.75,349,1232.73,351.36Z"/><path class="cls-2" d="M1256.9,347.89c-5.2,1.95-6.72,3.14-8.78,7.59-2.38,5-2.17,11.27.43,15.5,5,8.24,18,9.75,25.7,3.14,3.68-3.25,2.82-4.55-1.41-2.28-8.68,4.56-15.61-1.19-15.61-12.79,0-5.63,2.49-9.43,6.07-9.43,2.17,0,2.6.54,2.6,3.25,0,2.5.65,3.58,2.82,4.56,3.68,1.73,6.39,0,6.39-4.12C1275.11,347.56,1265.79,344.74,1256.9,347.89Z"/><path class="cls-2" d="M1339.29,348.43c-3.14,1.62-4,1.73-4,.54s-1.84-1.52-7.59-1.52c-7.26,0-10.08,1.3-5.42,2.5,2,.54,2.17,1.51,2.17,11.92,0,10.19-.22,11.6-2.17,13-3.25,2.28-1.52,2.93,7.81,2.93,7.91,0,11-1.3,6.83-2.82-1.3-.54-1.63-2.82-1.63-10.84,0-8.89.22-10.3,2.06-11.28,3.14-1.62,6.29-1.3,7.05.65.32,1,.65,6,.65,11.28,0,7.48-.33,9.65-1.63,10.19-.87.32-1.62,1.08-1.62,1.73s3.47,1.09,8.67,1.09c8,0,11-1.09,7-2.6-1.31-.44-1.63-2.71-1.63-10.85,0-11.81-1.19-15.28-5.75-16.91S1344,346,1339.29,348.43Z"/><path class="cls-2" d="M1371.06,348.75c-6.18,3.15-9,8.13-8.35,15.07.76,8.78,7.37,14.42,17,14.42s16.26-6.4,16.26-15.61C1396,350,1382.87,342.57,1371.06,348.75Zm13.11,4.88c1.52,4.66.76,18-1.19,20.38s-6.18,2.06-7.59-.43c-.54-1.19-1.08-6.29-1.08-11.38,0-7.81.32-9.65,2.06-11.39C1379.4,347.78,1382.66,349.08,1384.17,353.63Z"/><path class="cls-2" d="M1431.22,347.56c-7.48,2.17-12.25,11.17-10.08,19.19,2.06,7.48,7.7,11.38,16.91,11.38,6.51,0,10-1.95,14.1-7.91C1460.49,357.86,1446.73,343,1431.22,347.56Zm10.3,4.34c1.41,2.6,1.41,19,0,21.68s-6,2.6-8-.33-2.38-16.69-.54-20.81S1439.46,347.89,1441.52,351.9Z"/><path class="cls-2" d="M1467.11,347.45c-8.68,2.71-11.17,11.39-4.66,16.91,2.38,2.06,3,3.15,2,3.47-2.5.87-5.53,4.45-5.53,6.62a5.09,5.09,0,0,0,2.27,3.68l2.28,1.63-2.28.76c-2.71.86-4,4.44-2.27,6.5,3.36,4.12,19.4,5,27.1,1.52,8.13-3.69,8.13-11.93,0-14.74-2.06-.76-6.83-1.3-10.52-1.3s-6.93-.55-7.26-1q-1.62-2.76,7.16-3.9a37.92,37.92,0,0,0,8.89-1.85c3.68-1.73,5.53-6.5,4.12-10.73-1.09-3-1-3.25,1.51-3.25s3.69-2.49,1.85-3.58S1470,346.59,1467.11,347.45Zm10,3.47c.76.76,1.3,3.58,1.3,6.29s-.54,5.53-1.3,6.29c-1.73,1.73-6,1.62-6.94,0s-1-11.06,0-12.69S1475.45,349.3,1477.08,350.92Zm7.81,31.77c.65.86,1,2.06.54,2.6-1.09,1.95-9.43,3.58-14,2.92-5.74-1-7.48-2.38-6-5.09.87-1.74,2.28-2.06,9.54-2.06C1481.2,381.06,1483.91,381.49,1484.89,382.69Z"/><path class="cls-2" d="M1494.64,348.43c0,.54.65,1.19,1.52,1.52s4.55,6.83,8.13,14.31l6.61,13.66-2.16,4.33c-2.5,4.77-4.45,5.42-6,1.74-2-4.45-9.21-3.26-9.21,1.51,0,5.75,11.49,6.83,15.72,1.52,2-2.27,9.11-17.56,15.18-32.3,1-2.28,2.38-4.34,3.25-4.77,3.58-1.3,1.3-2.5-4.55-2.39-6.08,0-6.18.11-3.8,1.74,3,2.06,2.93,2.16-.32,9.75l-2.82,6.18-3.15-6.83c-3.68-7.69-3.9-8.78-1.73-8.78a3.07,3.07,0,0,0,2.28-1.08c.43-.65-2.93-1.09-9.11-1.09C1499.09,347.45,1494.64,347.89,1494.64,348.43Z"/></g></g></svg>