<svg xmlns="http://www.w3.org/2000/svg" viewBox="0 0 640 720" fill="none">
  <rect width="640" height="720" fill="#F9F4F6"/>
  <rect x="36" y="36" width="568" height="648" rx="40" fill="url(#bg)"/>
  <circle cx="320" cy="292" r="108" fill="#FFFDFE"/>
  <path d="M196 596c18-104 73-162 124-162s106 58 124 162" fill="#FFFFFF" fill-opacity=".96"/>
  <path d="M222 610c18-83 57-126 98-126s80 43 98 126" stroke="#09121F" stroke-opacity=".14" stroke-width="3"/>
  <circle cx="320" cy="250" r="46" fill="#E2D5DB"/>
  <rect x="84" y="84" width="112" height="44" rx="22" fill="#FFFFFF" fill-opacity=".88"/>
  <text x="140" y="113" text-anchor="middle" font-family="Outfit, Arial, sans-serif" font-size="22" font-weight="700" fill="#9C4564">AD</text>
  <path d="M446 106h96v84h-96z" rx="18" fill="#FFFFFF" fill-opacity=".14"/>
  <path d="M470 132h48" stroke="#FFFFFF" stroke-opacity=".48" stroke-width="10" stroke-linecap="round"/>
  <path d="M470 160h36" stroke="#FFFFFF" stroke-opacity=".34" stroke-width="10" stroke-linecap="round"/>
  <defs>
    <linearGradient id="bg" x1="84" y1="84" x2="560" y2="636" gradientUnits="userSpaceOnUse">
      <stop stop-color="#9C4564"/>
      <stop offset="1" stop-color="#D88A9D"/>
    </linearGradient>
  </defs>
</svg>
